<svg width="30" height="31" viewBox="0 0 30 31" fill="none" xmlns="http://www.w3.org/2000/svg">
<g filter="url(#filter0_d_0_308)">
<mask id="path-1-outside-1_0_308" maskUnits="userSpaceOnUse" x="4.99402" y="2" width="21" height="21" fill="black">
<rect fill="white" x="4.99402" y="2" width="21" height="21"/>
<path fill-rule="evenodd" clip-rule="evenodd" d="M20.9777 17.3318C22.2393 15.9168 23.006 14.0509 23.006 12.006C23.006 7.5844 19.4216 4 15 4C10.5784 4 6.99402 7.5844 6.99402 12.006C6.99402 16.4276 10.5784 20.012 15 20.012C16.521 20.012 17.9429 19.5878 19.1539 18.8514L21.4073 19.3347L20.9777 17.3318Z"/>
</mask>
<path d="M20.9777 17.3318L19.4849 16.0008L18.8092 16.7586L19.0222 17.7513L20.9777 17.3318ZM19.1539 18.8514L19.5734 16.8958L18.795 16.7289L18.1148 17.1425L19.1539 18.8514ZM21.4073 19.3347L20.9878 21.2902L24.0114 21.9388L23.3628 18.9152L21.4073 19.3347ZM21.006 12.006C21.006 13.5414 20.4325 14.938 19.4849 16.0008L22.4705 18.6628C24.0461 16.8956 25.006 14.5605 25.006 12.006H21.006ZM15 6C18.317 6 21.006 8.68897 21.006 12.006H25.006C25.006 6.47983 20.5262 2 15 2V6ZM8.99402 12.006C8.99402 8.68897 11.683 6 15 6V2C9.47385 2 4.99402 6.47983 4.99402 12.006H8.99402ZM15 18.012C11.683 18.012 8.99402 15.323 8.99402 12.006H4.99402C4.99402 17.5321 9.47385 22.012 15 22.012V18.012ZM18.1148 17.1425C17.208 17.6939 16.1442 18.012 15 18.012V22.012C16.8978 22.012 18.6778 21.4817 20.1931 20.5602L18.1148 17.1425ZM18.7345 20.8069L20.9878 21.2902L21.8268 17.3792L19.5734 16.8958L18.7345 20.8069ZM23.3628 18.9152L22.9332 16.9123L19.0222 17.7513L19.4518 19.7542L23.3628 18.9152Z" fill="black" mask="url(#path-1-outside-1_0_308)"/>
</g>
<defs>
<filter id="filter0_d_0_308" x="-1" y="0" width="32" height="32" filterUnits="userSpaceOnUse" color-interpolation-filters="sRGB">
<feFlood flood-opacity="0" result="BackgroundImageFix"/>
<feColorMatrix in="SourceAlpha" type="matrix" values="0 0 0 0 0 0 0 0 0 0 0 0 0 0 0 0 0 0 127 0" result="hardAlpha"/>
<feOffset dy="4"/>
<feGaussianBlur stdDeviation="2"/>
<feComposite in2="hardAlpha" operator="out"/>
<feColorMatrix type="matrix" values="0 0 0 0 0 0 0 0 0 0 0 0 0 0 0 0 0 0 0.25 0"/>
<feBlend mode="normal" in2="BackgroundImageFix" result="effect1_dropShadow_0_308"/>
<feBlend mode="normal" in="SourceGraphic" in2="effect1_dropShadow_0_308" result="shape"/>
</filter>
</defs>
</svg>
