<svg width="40" height="40" viewBox="0 0 40 40" fill="none" xmlns="http://www.w3.org/2000/svg">
<path d="M11.6667 36.25C10.4511 36.25 9.28531 35.7671 8.42577 34.9076C7.56623 34.048 7.08334 32.8822 7.08334 31.6667V25C7.08334 23.7844 7.56623 22.6186 8.42577 21.7591C9.28531 20.8996 10.4511 20.4167 11.6667 20.4167C12.8823 20.4167 14.048 20.8996 14.9076 21.7591C15.7671 22.6186 16.25 23.7844 16.25 25V31.6667C16.25 32.8822 15.7671 34.048 14.9076 34.9076C14.048 35.7671 12.8823 36.25 11.6667 36.25ZM11.6667 22.9167C11.1141 22.9167 10.5842 23.1362 10.1935 23.5269C9.80284 23.9176 9.58334 24.4475 9.58334 25V31.6667C9.58334 32.2192 9.80284 32.7491 10.1935 33.1398C10.5842 33.5305 11.1141 33.75 11.6667 33.75C12.2192 33.75 12.7491 33.5305 13.1398 33.1398C13.5305 32.7491 13.75 32.2192 13.75 31.6667V25C13.75 24.4475 13.5305 23.9176 13.1398 23.5269C12.7491 23.1362 12.2192 22.9167 11.6667 22.9167Z" fill="#2D2D2D"/>
<path d="M28.3333 36.25C27.1178 36.25 25.952 35.7671 25.0924 34.9076C24.2329 34.048 23.75 32.8822 23.75 31.6667V25C23.75 23.7844 24.2329 22.6186 25.0924 21.7591C25.952 20.8996 27.1178 20.4167 28.3333 20.4167C29.5489 20.4167 30.7147 20.8996 31.5742 21.7591C32.4338 22.6186 32.9167 23.7844 32.9167 25V31.6667C32.9167 32.8822 32.4338 34.048 31.5742 34.9076C30.7147 35.7671 29.5489 36.25 28.3333 36.25ZM28.3333 22.9167C27.7808 22.9167 27.2509 23.1362 26.8602 23.5269C26.4695 23.9176 26.25 24.4475 26.25 25V31.6667C26.25 32.2192 26.4695 32.7491 26.8602 33.1398C27.2509 33.5305 27.7808 33.75 28.3333 33.75C28.8859 33.75 29.4158 33.5305 29.8065 33.1398C30.1972 32.7491 30.4167 32.2192 30.4167 31.6667V25C30.4167 24.4475 30.1972 23.9176 29.8065 23.5269C29.4158 23.1362 28.8859 22.9167 28.3333 22.9167Z" fill="#2D2D2D"/>
<path d="M36.6667 29.5833C36.3365 29.579 36.0211 29.4459 35.7876 29.2124C35.5541 28.979 35.421 28.6635 35.4167 28.3333V21.6667C35.4167 17.5779 33.7924 13.6566 30.9012 10.7654C28.0101 7.87425 24.0888 6.25 20 6.25C15.9113 6.25 11.99 7.87425 9.09878 10.7654C6.20759 13.6566 4.58334 17.5779 4.58334 21.6667V28.3333C4.58334 28.6649 4.45165 28.9828 4.21723 29.2172C3.98281 29.4516 3.66486 29.5833 3.33334 29.5833C3.00182 29.5833 2.68388 29.4516 2.44946 29.2172C2.21504 28.9828 2.08334 28.6649 2.08334 28.3333V21.6667C2.08334 16.9149 3.97099 12.3577 7.33101 8.99767C10.691 5.63764 15.2482 3.75 20 3.75C24.7518 3.75 29.309 5.63764 32.669 8.99767C36.029 12.3577 37.9167 16.9149 37.9167 21.6667V28.3333C37.9124 28.6635 37.7793 28.979 37.5458 29.2124C37.3123 29.4459 36.9969 29.579 36.6667 29.5833Z" fill="#2D2D2D"/>
</svg>
