<svg width="15" height="15" viewBox="0 0 15 15" fill="none" xmlns="http://www.w3.org/2000/svg">
<path d="M6.06874 7.05618C5.95105 6.93849 5.79143 6.87238 5.62499 6.87238C5.45856 6.87238 5.29893 6.93849 5.18124 7.05618C5.06355 7.17387 4.99744 7.3335 4.99744 7.49993C4.99744 7.66637 5.06355 7.82599 5.18124 7.94368L7.05624 9.81868C7.11464 9.87661 7.1839 9.92244 7.26005 9.95354C7.3362 9.98464 7.41774 10.0004 7.49999 9.99993C7.58556 9.99722 7.66965 9.97696 7.74706 9.9404C7.82446 9.90385 7.89354 9.85178 7.94999 9.78743L12.325 4.78743C12.426 4.66201 12.4747 4.50244 12.461 4.34199C12.4472 4.18153 12.372 4.03258 12.2511 3.92619C12.1302 3.8198 11.9729 3.76418 11.812 3.77094C11.6511 3.77769 11.4991 3.84629 11.3875 3.96243L7.49999 8.46243L6.06874 7.05618Z" fill="#4CA2BD"/>
<path d="M13.125 6.87497C12.9592 6.87497 12.8003 6.94082 12.6831 7.05803C12.5659 7.17524 12.5 7.33421 12.5 7.49997C12.5 8.82605 11.9732 10.0978 11.0355 11.0355C10.0979 11.9732 8.82609 12.5 7.50001 12.5C6.51256 12.4995 5.54736 12.2067 4.72611 11.6584C3.90486 11.1102 3.26433 10.331 2.88531 9.4192C2.50628 8.5074 2.40572 7.50378 2.59631 6.5349C2.7869 5.56602 3.26011 4.67527 3.95626 3.97497C4.41919 3.50583 4.97105 3.13375 5.57954 2.88048C6.18803 2.62721 6.84092 2.49785 7.50001 2.49997C7.89966 2.50247 8.29785 2.54858 8.6875 2.63747C8.76905 2.66269 8.85489 2.67094 8.93974 2.66172C9.0246 2.65249 9.10666 2.62599 9.18088 2.58383C9.25509 2.54168 9.31989 2.48476 9.37127 2.41661C9.42265 2.34845 9.45952 2.27049 9.47962 2.18754C9.49972 2.10459 9.50261 2.0184 9.48812 1.93428C9.47363 1.85017 9.44207 1.76991 9.39537 1.69846C9.34868 1.62702 9.28785 1.56589 9.21662 1.51885C9.1454 1.47181 9.0653 1.43986 8.98126 1.42497C8.49572 1.31075 7.99879 1.25204 7.50001 1.24997C6.26522 1.25638 5.06 1.62842 4.03644 2.31913C3.01288 3.00983 2.21686 3.98826 1.74883 5.13093C1.2808 6.27359 1.16173 7.5293 1.40665 8.73957C1.65157 9.94984 2.24951 11.0604 3.12501 11.9312C4.28544 13.0922 5.85854 13.7461 7.50001 13.75C9.15761 13.75 10.7473 13.0915 11.9194 11.9194C13.0915 10.7473 13.75 9.15757 13.75 7.49997C13.75 7.33421 13.6842 7.17524 13.5669 7.05803C13.4497 6.94082 13.2908 6.87497 13.125 6.87497Z" fill="#4CA2BD"/>
</svg>
