<svg width="40" height="40" viewBox="0 0 40 40" fill="none" xmlns="http://www.w3.org/2000/svg">
<path d="M10.7501 19.75C10.5839 19.7491 10.4196 19.7151 10.2667 19.65C9.965 19.5248 9.72524 19.2851 9.60008 18.9833C9.5017 18.7552 9.47451 18.5026 9.5221 18.2588C9.56968 18.0149 9.68981 17.7911 9.86675 17.6167C9.97766 17.498 10.1146 17.4068 10.2667 17.35C10.5 17.2386 10.7621 17.2023 11.0168 17.246C11.2716 17.2897 11.5066 17.4113 11.6893 17.5941C11.8721 17.7769 11.9937 18.0118 12.0374 18.2666C12.0812 18.5214 12.0448 18.7834 11.9334 19.0167C11.8767 19.1688 11.7854 19.3058 11.6667 19.4167C11.5441 19.5308 11.3997 19.6192 11.2423 19.6764C11.0848 19.7337 10.9174 19.7587 10.7501 19.75Z" fill="#2D2D2D"/>
<path d="M17.3667 33.2C14.4824 33.2 11.6629 32.3447 9.26466 30.7423C6.86644 29.1398 4.99726 26.8622 3.89348 24.1975C2.7897 21.5327 2.50091 18.6005 3.06361 15.7716C3.62631 12.9427 5.01524 10.3442 7.05475 8.30469C9.09427 6.26518 11.6928 4.87625 14.5217 4.31355C17.3505 3.75085 20.2828 4.03964 22.9475 5.14342C25.6123 6.2472 27.8899 8.11638 29.4923 10.5146C31.0948 12.9128 31.9501 15.7324 31.9501 18.6167C31.9501 22.4844 30.4136 26.1937 27.6787 28.9286C24.9438 31.6635 21.2345 33.2 17.3667 33.2ZM17.3667 6.53333C14.9769 6.53333 12.6407 7.24201 10.6536 8.56974C8.66649 9.89747 7.11774 11.7846 6.20318 13.9926C5.28862 16.2005 5.04933 18.6301 5.51557 20.974C5.98181 23.3179 7.13263 25.471 8.82252 27.1609C10.5124 28.8508 12.6654 30.0016 15.0094 30.4678C17.3533 30.9341 19.7829 30.6948 21.9908 29.7802C24.1988 28.8656 26.0859 27.3169 27.4137 25.3298C28.7414 23.3427 29.4501 21.0065 29.4501 18.6167C29.4457 15.4133 28.1712 12.3424 25.9061 10.0773C23.641 7.81222 20.5701 6.53774 17.3667 6.53333Z" fill="#2D2D2D"/>
<path d="M17.1167 13.3333C16.7802 13.3338 16.457 13.2021 16.2167 12.9666C15.9842 12.7244 15.853 12.4024 15.85 12.0666C15.8597 11.9285 15.8936 11.7931 15.95 11.6666C16.0191 11.516 16.1089 11.3758 16.2167 11.25C16.4631 11.0332 16.7801 10.9136 17.1084 10.9136C17.4366 10.9136 17.7536 11.0332 18 11.25C18.1314 11.3714 18.2438 11.5118 18.3334 11.6666C18.3903 11.8162 18.4241 11.9736 18.4334 12.1333C18.4339 12.4698 18.3022 12.793 18.0667 13.0333C17.8016 13.2539 17.4604 13.3616 17.1167 13.3333Z" fill="#2D2D2D"/>
<path d="M23.8 19.4167C23.6337 19.4172 23.4692 19.3831 23.3167 19.3167C23.1646 19.2599 23.0276 19.1686 22.9167 19.05C22.7987 18.9351 22.7026 18.7995 22.6334 18.65C22.5801 18.4943 22.552 18.3312 22.55 18.1667C22.5503 17.8352 22.6822 17.5175 22.9167 17.2833C23.1511 17.0492 23.4688 16.9178 23.8 16.9178C24.1313 16.9178 24.449 17.0492 24.6834 17.2833C24.795 17.4063 24.8851 17.5472 24.9501 17.7C25.0166 17.8465 25.0507 18.0057 25.0501 18.1667C25.0506 18.333 25.0165 18.4975 24.9501 18.65C24.8868 18.7987 24.7964 18.9344 24.6834 19.05C24.4472 19.2815 24.1307 19.4128 23.8 19.4167Z" fill="#2D2D2D"/>
<path d="M17.1167 26.1C16.7802 26.1005 16.457 25.9688 16.2167 25.7333C15.9822 25.4991 15.8503 25.1814 15.85 24.85C15.8572 24.52 15.9881 24.2047 16.2167 23.9667C16.4615 23.7465 16.7791 23.6246 17.1084 23.6246C17.4376 23.6246 17.7552 23.7465 18 23.9667C18.2315 24.2029 18.3629 24.5193 18.3667 24.85C18.3664 25.1814 18.2345 25.4991 18 25.7333C17.7638 25.9648 17.4474 26.0961 17.1167 26.1Z" fill="#2D2D2D"/>
<path d="M35.9667 33.2H16.6667C16.3352 33.2 16.0172 33.0683 15.7828 32.8339C15.5484 32.5994 15.4167 32.2815 15.4167 31.95C15.4167 31.6185 15.5484 31.3005 15.7828 31.0661C16.0172 30.8317 16.3352 30.7 16.6667 30.7H35.9667C36.2982 30.7 36.6162 30.8317 36.8506 31.0661C37.085 31.3005 37.2167 31.6185 37.2167 31.95C37.2167 32.2815 37.085 32.5994 36.8506 32.8339C36.6162 33.0683 36.2982 33.2 35.9667 33.2Z" fill="#2D2D2D"/>
</svg>
